<?xml version="1.0" encoding="UTF-8"?>
<svg id="Capa_1" data-name="Capa 1" xmlns="http://www.w3.org/2000/svg" viewBox="0 0 960.3 726.96">
  <defs>
    <style>
      .cls-1 {
        letter-spacing: -.01em;
      }

      .cls-2 {
        font-family: Gotham-BoldItalic, Gotham;
        font-size: 126.49px;
        font-weight: 700;
      }

      .cls-2, .cls-3 {
        fill: #008637;
      }

      .cls-2, .cls-4, .cls-5 {
        font-style: italic;
      }

      .cls-6 {
        fill: #1d1d1b;
        font-family: Gotham-Light, Gotham;
        font-size: 25.67px;
        font-weight: 300;
      }

      .cls-7 {
        letter-spacing: -.08em;
      }

      .cls-8 {
        fill: #fff;
      }

      .cls-9, .cls-4 {
        fill: #e73c2a;
      }

      .cls-4 {
        font-size: 95.42px;
      }

      .cls-4, .cls-5 {
        font-family: Gotham-UltraItalic, 'Gotham Ultra';
      }

      .cls-10 {
        letter-spacing: -.02em;
      }

      .cls-11 {
        letter-spacing: -.02em;
      }

      .cls-12 {
        letter-spacing: 0em;
      }

      .cls-13 {
        letter-spacing: 0em;
      }

      .cls-14 {
        letter-spacing: -.08em;
      }

      .cls-5 {
        fill: #018638;
        font-size: 119.83px;
      }

      .cls-15 {
        letter-spacing: 0em;
      }

      .cls-16 {
        letter-spacing: -.01em;
      }

      .cls-17 {
        letter-spacing: 0em;
      }
    </style>
  </defs>
  <text class="cls-5" transform="translate(4.19 692.22)"><tspan x="0" y="0">NI</tspan><tspan class="cls-17" x="130.61" y="0">C</tspan><tspan class="cls-7" x="216.53" y="0">O</tspan><tspan class="cls-14" x="302.21" y="0">Y</tspan><tspan class="cls-13" x="376.39" y="0">A</tspan></text>
  <text class="cls-6" transform="translate(9.03 718.49)"><tspan x="0" y="0">ยก</tspan><tspan class="cls-1" x="6.47" y="0">C</tspan><tspan class="cls-12" x="25.15" y="0">omp</tspan><tspan class="cls-11" x="82.92" y="0">r</tspan><tspan x="92.55" y="0">ometidos </tspan><tspan class="cls-16" x="218.85" y="0">c</tspan><tspan x="233.12" y="0">on nue</tspan><tspan class="cls-15" x="319.43" y="0">s</tspan><tspan x="331.93" y="0">t</tspan><tspan class="cls-10" x="342.19" y="0">r</tspan><tspan x="351.82" y="0">a gen</tspan><tspan class="cls-16" x="421.91" y="0">t</tspan><tspan x="431.79" y="0">e!</tspan></text>
  <text class="cls-4" transform="translate(28.05 600.22)"><tspan x="0" y="0">LA GRAN </tspan></text>
  <path class="cls-3" d="m529.3,457.31c18.03-26.2,43.11-47.48,71.89-61.01,52.51-24.68,113.05-22.68,171.07-22,58.02.68,119.43-1.4,168.46-32.43-15.75,57.55-63.57,100.82-114.39,132.09-12.66,7.79-25.71,15.08-39.67,20.17-64.04,23.3-137.08-2.75-202.67,15.76-8.26,2.33-16.3,5.35-24.29,8.47-13.33,5.21-26.58,10.78-39.08,17.78-12.88,7.2-22.63,16.87-34.02,25.71-.19-8.11,5.01-18.63,7.48-26.47,2.89-9.14,5.95-18.24,9.37-27.2,6.8-17.8,15.03-35.13,25.86-50.86Z"/>
  <path class="cls-3" d="m545.39,622.44c18.03-26.2,43.11-47.48,71.89-61.01,52.51-24.68,113.05-22.68,171.07-22s119.43-1.4,168.46-32.43c-15.75,57.55-63.57,100.82-114.39,132.09-12.66,7.79-25.71,15.08-39.67,20.17-64.04,23.3-137.08-2.75-202.67,15.76-8.26,2.33-16.3,5.35-24.29,8.47-13.33,5.21-26.58,10.78-39.08,17.78-12.88,7.2-22.63,16.87-34.02,25.71-.19-8.11,5.01-18.63,7.48-26.47,2.89-9.14,5.95-18.24,9.37-27.2,6.8-17.8,15.03-35.13,25.86-50.86Z"/>
  <path class="cls-9" d="m548.88,529.33c18.03-26.2,43.11-47.48,71.89-61.01,52.51-24.68,113.05-22.68,171.07-22,58.02.68,119.43-1.4,168.46-32.43-15.75,57.55-63.57,100.82-114.39,132.09-12.66,7.79-25.71,15.08-39.67,20.17-64.04,23.3-137.08-2.75-202.67,15.76-8.26,2.33-16.3,5.35-24.29,8.47-13.33,5.21-26.58,10.78-39.08,17.78-12.88,7.2-22.63,16.87-34.02,25.71-.19-8.11,5.01-18.63,7.48-26.47,2.89-9.14,5.95-18.24,9.37-27.2,6.8-17.8,15.03-35.13,25.86-50.86Z"/>
  <text class="cls-2" transform="translate(20.84 525.99)"><tspan x="0" y="0">SOMOS</tspan></text>
  <path class="cls-8" d="m179.15,5c3.22,0,3.22-5,0-5s-3.22,5,0,5h0Z"/>
</svg>